{
  "accessors": [
    {
      "bufferView": 2,
      "componentType": 5126,
      "count": 65532,
      "max": [
        11.732757568359375,
        11.883257865905762,
        8.483253479003906
      ],
      "min": [
        0.0,
        2.055424690246582,
        0.0
      ],
      "type": "VEC3"
    },
    {
      "bufferView": 2,
      "byteOffset": 786384,
      "componentType": 5126,
      "count": 65532,
      "max": [
        0.9999916553497314,
        0.9998476505279541,
        0.9999502301216125
      ],
      "min": [
        -0.9999943375587463,
        -0.999999463558197,
        -0.9999997615814209
      ],
      "type": "VEC3"
    },
    {
      "bufferView": 1,
      "componentType": 5126,
      "count": 65532,
      "max": [
        0.9992679953575134,
        0.9965419769287109
      ],
      "min": [
        0.0007319999858736992,
        0.0007409999961964786
      ],
      "type": "VEC2"
    },
    {
      "bufferView": 0,
      "componentType": 5125,
      "count": 354984,
      "type": "SCALAR"
    },
    {
      "bufferView": 2,
      "byteOffset": 1572768,
      "componentType": 5126,
      "count": 65532,
      "max": [
        11.942420959472656,
        11.888538360595703,
        8.760526657104492
      ],
      "min": [
        0.596552848815918,
        0.013486862182617188,
        0.006618976593017578
      ],
      "type": "VEC3"
    },
    {
      "bufferView": 2,
      "byteOffset": 2359152,
      "componentType": 5126,
      "count": 65532,
      "max": [
        0.9999836683273315,
        0.9858059883117676,
        0.999999463558197
      ],
      "min": [
        -0.9999966025352478,
        -1.0,
        -0.9999520182609558
      ],
      "type": "VEC3"
    },
    {
      "bufferView": 1,
      "byteOffset": 524256,
      "componentType": 5126,
      "count": 65532,
      "max": [
        0.9984130263328552,
        0.9990119934082031
      ],
      "min": [
        0.0007319999858736992,
        0.0007409999961964786
      ],
      "type": "VEC2"
    },
    {
      "bufferView": 0,
      "byteOffset": 1419936,
      "componentType": 5125,
      "count": 353919,
      "type": "SCALAR"
    },
    {
      "bufferView": 2,
      "byteOffset": 3145536,
      "componentType": 5126,
      "count": 65532,
      "max": [
        11.90610122680664,
        11.880083084106445,
        8.868285179138184
      ],
      "min": [
        0.6551980972290039,
        0.009935855865478516,
        0.21748113632202148
      ],
      "type": "VEC3"
    },
    {
      "bufferView": 2,
      "byteOffset": 3931920,
      "componentType": 5126,
      "count": 65532,
      "max": [
        0.9999927878379822,
        0.9106378555297852,
        0.9999998807907104
      ],
      "min": [
        -0.9999925494194031,
        -0.9999997615814209,
        -0.9999945163726807
      ],
      "type": "VEC3"
    },
    {
      "bufferView": 1,
      "byteOffset": 1048512,
      "componentType": 5126,
      "count": 65532,
      "max": [
        0.9992679953575134,
        0.9983940124511719
      ],
      "min": [
        0.0007319999858736992,
        0.0037060000468045473
      ],
      "type": "VEC2"
    },
    {
      "bufferView": 0,
      "byteOffset": 2835612,
      "componentType": 5125,
      "count": 348327,
      "type": "SCALAR"
    },
    {
      "bufferView": 2,
      "byteOffset": 4718304,
      "componentType": 5126,
      "count": 65532,
      "max": [
        11.797811508178711,
        11.861833572387695,
        6.1140007972717285
      ],
      "min": [
        0.13965225219726563,
        0.0,
        0.20101499557495117
      ],
      "type": "VEC3"
    },
    {
      "bufferView": 2,
      "byteOffset": 5504688,
      "componentType": 5126,
      "count": 65532,
      "max": [
        0.9998688697814941,
        0.99831223487854,
        0.99760502576828
      ],
      "min": [
        -0.9999777674674988,
        -0.9999995231628418,
        -1.0
      ],
      "type": "VEC3"
    },
    {
      "bufferView": 1,
      "byteOffset": 1572768,
      "componentType": 5126,
      "count": 65532,
      "max": [
        0.9992679953575134,
        0.9992589950561523
      ],
      "min": [
        0.0007319999858736992,
        0.0007409999961964786
      ],
      "type": "VEC2"
    },
    {
      "bufferView": 0,
      "byteOffset": 4228920,
      "componentType": 5125,
      "count": 352836,
      "type": "SCALAR"
    },
    {
      "bufferView": 2,
      "byteOffset": 6291072,
      "componentType": 5126,
      "count": 30923,
      "max": [
        9.073116302490234,
        5.98377799987793,
        6.092249870300293
      ],
      "min": [
        2.8758480548858643,
        0.001880645751953125,
        0.4105048179626465
      ],
      "type": "VEC3"
    },
    {
      "bufferView": 2,
      "byteOffset": 6662148,
      "componentType": 5126,
      "count": 30923,
      "max": [
        0.9998958706855774,
        0.9110223054885864,
        0.9999943375587463
      ],
      "min": [
        -0.9998167753219604,
        -1.0,
        -0.9999826550483704
      ],
      "type": "VEC3"
    },
    {
      "bufferView": 1,
      "byteOffset": 2097024,
      "componentType": 5126,
      "count": 30923,
      "max": [
        0.9992679953575134,
        0.997406005859375
      ],
      "min": [
        0.06616199761629105,
        0.0007409999961964786
      ],
      "type": "VEC2"
    },
    {
      "bufferView": 0,
      "byteOffset": 5640264,
      "componentType": 5125,
      "count": 165384,
      "type": "SCALAR"
    }
  ],
  "asset": {
    "extras": {
      "author": "Geoffrey Marchal (https://sketchfab.com/geoffreymarchal)",
      "license": "CC-BY-NC-SA-4.0 (http://creativecommons.org/licenses/by-nc-sa/4.0/)",
      "source": "https://sketchfab.com/3d-models/altar-for-diana-c4b690f510b14f3bb5dadb19b7df8ef5",
      "title": "Altar for Diana"
    },
    "generator": "Sketchfab-15.12.0",
    "version": "2.0"
  },
  "bufferViews": [
    {
      "buffer": 0,
      "byteLength": 6301800,
      "name": "floatBufferViews",
      "target": 34963
    },
    {
      "buffer": 0,
      "byteLength": 2344408,
      "byteOffset": 6301800,
      "byteStride": 8,
      "name": "floatBufferViews",
      "target": 34962
    },
    {
      "buffer": 0,
      "byteLength": 7033224,
      "byteOffset": 8646208,
      "byteStride": 12,
      "name": "floatBufferViews",
      "target": 34962
    }
  ],
  "buffers": [
    {
      "byteLength": 15679432,
      "uri": "scene.bin"
    }
  ],
  "extensionsUsed": [
    "KHR_materials_specular"
  ],
  "images": [
    {
      "uri": "textures/Material_0_baseColor.jpeg"
    },
    {
      "uri": "textures/Material_0_metallicRoughness.png"
    },
    {
      "uri": "textures/Material_0_specularf0.png"
    }
  ],
  "materials": [
    {
      "doubleSided": true,
      "extensions": {
        "KHR_materials_specular": {
          "specularColorFactor": [
            1.0,
            1.0,
            1.0
          ],
          "specularFactor": 1.0,
          "specularTexture": {
            "index": 2
          }
        }
      },
      "name": "Material_0",
      "pbrMetallicRoughness": {
        "baseColorTexture": {
          "index": 0
        },
        "metallicFactor": 0.0,
        "metallicRoughnessTexture": {
          "index": 1
        }
      }
    }
  ],
  "meshes": [
    {
      "name": "Object_0",
      "primitives": [
        {
          "attributes": {
            "NORMAL": 1,
            "POSITION": 0,
            "TEXCOORD_0": 2
          },
          "indices": 3,
          "material": 0,
          "mode": 4
        }
      ]
    },
    {
      "name": "Object_1",
      "primitives": [
        {
          "attributes": {
            "NORMAL": 5,
            "POSITION": 4,
            "TEXCOORD_0": 6
          },
          "indices": 7,
          "material": 0,
          "mode": 4
        }
      ]
    },
    {
      "name": "Object_2",
      "primitives": [
        {
          "attributes": {
            "NORMAL": 9,
            "POSITION": 8,
            "TEXCOORD_0": 10
          },
          "indices": 11,
          "material": 0,
          "mode": 4
        }
      ]
    },
    {
      "name": "Object_3",
      "primitives": [
        {
          "attributes": {
            "NORMAL": 13,
            "POSITION": 12,
            "TEXCOORD_0": 14
          },
          "indices": 15,
          "material": 0,
          "mode": 4
        }
      ]
    },
    {
      "name": "Object_4",
      "primitives": [
        {
          "attributes": {
            "NORMAL": 17,
            "POSITION": 16,
            "TEXCOORD_0": 18
          },
          "indices": 19,
          "material": 0,
          "mode": 4
        }
      ]
    }
  ],
  "nodes": [
    {
      "children": [
        1
      ],
      "matrix": [
        0.9939819574356079,
        0.008090951479971433,
        -0.10924477130174637,
        0.0,
        0.0071614328771829605,
        -0.9999347925186157,
        -0.008898265659809335,
        0.0,
        -0.10930964350700378,
        0.008062366396188956,
        -0.993975043296814,
        0.0,
        0.0,
        0.0,
        0.0,
        1.0
      ],
      "name": "Sketchfab_model"
    },
    {
      "children": [
        2
      ],
      "matrix": [
        1.0,
        0.0,
        0.0,
        0.0,
        0.0,
        1.0,
        0.0,
        0.0,
        0.0,
        0.0,
        1.0,
        0.0,
        -5.853929042816162,
        -6.889063835144043,
        -4.639925956726074,
        1.0
      ],
      "name": "altar.obj.cleaner.materialmerger.gles"
    },
    {
      "children": [
        3,
        4,
        5,
        6,
        7
      ],
      "name": "Object_2"
    },
    {
      "mesh": 0,
      "name": "Object_3"
    },
    {
      "mesh": 1,
      "name": "Object_4"
    },
    {
      "mesh": 2,
      "name": "Object_5"
    },
    {
      "mesh": 3,
      "name": "Object_6"
    },
    {
      "mesh": 4,
      "name": "Object_7"
    }
  ],
  "samplers": [
    {
      "magFilter": 9729,
      "minFilter": 9987,
      "wrapS": 10497,
      "wrapT": 10497
    },
    {
      "magFilter": 9728,
      "minFilter": 9728,
      "wrapS": 10497,
      "wrapT": 10497
    }
  ],
  "scene": 0,
  "scenes": [
    {
      "name": "Sketchfab_Scene",
      "nodes": [
        0
      ]
    }
  ],
  "textures": [
    {
      "sampler": 0,
      "source": 0
    },
    {
      "sampler": 1,
      "source": 1
    },
    {
      "sampler": 1,
      "source": 2
    }
  ]
}
